<svg xmlns="http://www.w3.org/2000/svg" width="1499" height="197" viewBox="0 0 1499 197">
  <defs><style>.ievgen-ivanenko{fill-rule: evenodd;}</style></defs>
  <path id="ievgen_ivanenko" class="ievgen-ivanenko" d="M34.963,8.491H-0.071V154.233H34.963V8.491ZM135.11,151.08q11.562-5.154,17.868-13.863L137.563,119q-9.009,11.211-25.025,11.211-9.71,0-15.815-5.205t-7.908-14.314h67.066V97.578q0-25.323-13.213-39.489T106.633,43.926q-16.216,0-28.028,6.957A45.053,45.053,0,0,0,60.638,70.552Q54.482,83.265,54.482,99.88v2.8q0,23.824,15.415,38.688t40.339,14.864A60.392,60.392,0,0,0,135.11,151.08ZM118.744,74.405q4.3,4.455,4.1,12.562v2.6H88.815q2.8-19.618,17.617-19.619Q114.439,69.951,118.744,74.405Zm75.774-28.478H158.884l35.334,108.306h34.434L263.986,45.928H228.451l-17.116,68.166Zm74.273,54.553q0,25.427,12.212,40.589t32.031,15.165a31.677,31.677,0,0,0,24.524-10.71v3.4q0,23.022-22.422,23.022-15.416,0-24.824-11.11L276.2,180.659q5.906,7.208,17.067,11.711a61.093,61.093,0,0,0,23.072,4.5q16.615,0,29.229-5.656A42.726,42.726,0,0,0,364.835,175q6.656-10.561,6.656-24.874V45.928h-30.63l-1.2,9.409q-9.512-11.411-26.426-11.411a40.9,40.9,0,0,0-23.523,6.857Q279.6,57.64,274.2,70.251T268.791,99.28v1.2Zm38.938-22.472q5.1-8.056,14.114-8.058,10.81,0,15.715,7.407V122.9q-5.007,7.308-15.916,7.307a15.79,15.79,0,0,1-14.013-7.758q-5.007-7.756-5-21.07Q302.624,86.066,307.729,78.009ZM467.935,151.08q11.562-5.154,17.868-13.863L470.388,119q-9.009,11.211-25.025,11.211-9.709,0-15.815-5.205t-7.908-14.314h67.065V97.578q0-25.323-13.212-39.489T439.457,43.926q-16.215,0-28.027,6.957a45.053,45.053,0,0,0-17.968,19.669q-6.156,12.713-6.156,29.329v2.8q0,23.824,15.416,38.688t40.339,14.864A60.392,60.392,0,0,0,467.935,151.08ZM451.569,74.405q4.3,4.455,4.1,12.562v2.6H421.64q2.8-19.618,17.617-19.619Q447.264,69.951,451.569,74.405Zm50.049-28.478V154.233h33.733V77.759q4.8-7.808,14.714-7.808,8.709,0,12.012,3.854t3.3,12.062v68.367h33.833V84.465q-0.3-20.319-8.658-30.43T565.28,43.926q-19.72,0-30.93,14.714l-1.1-12.712H501.618Zm206.3-37.437H672.885V154.233h35.034V8.491Zm49.248,37.437H721.533l35.334,108.306H791.3L826.635,45.928H791.1l-17.116,68.166ZM929.936,154.233v-1.7q-4.405-7.905-4.605-22.822V81.762q-0.3-17.616-12.312-27.727t-32.732-10.11q-20.719,0-34.083,9.8T832.841,79.218h33.733q0-11.869,12.012-11.869,12.912,0,12.912,14.987v5.734h-10.41q-24.825,0-37.837,9.009T830.239,123.7a29.466,29.466,0,0,0,10.71,23.273q10.71,9.26,26.025,9.259,16.716,0,26.026-11.711a38.077,38.077,0,0,0,3.2,9.709h33.733Zm-62.761-24.874a9.651,9.651,0,0,1-3.1-7.457q0-15.816,17.617-15.816H891.5V123.4a16.947,16.947,0,0,1-5.955,6.106,18.819,18.819,0,0,1-10.461,2.7A11.224,11.224,0,0,1,867.175,129.359Zm76.174-83.431V154.233h33.733V77.759q4.8-7.808,14.714-7.808,8.709,0,12.014,3.854t3.3,12.062v68.367h33.83V84.465q-0.3-20.319-8.65-30.43-8.37-10.109-25.28-10.11-19.719,0-30.929,14.714l-1.1-12.712H943.349ZM1136.89,151.08q11.565-5.154,17.87-13.863L1139.34,119q-9.015,11.211-25.02,11.211-9.72,0-15.82-5.205t-7.91-14.314h67.07V97.578q0-25.323-13.21-39.489t-36.04-14.164q-16.215,0-28.03,6.957a45.042,45.042,0,0,0-17.96,19.669q-6.165,12.713-6.16,29.329v2.8q0,23.824,15.41,38.688t40.34,14.864A60.41,60.41,0,0,0,1136.89,151.08Zm-16.37-76.675q4.305,4.455,4.11,12.562v2.6h-34.04q2.805-19.618,17.62-19.619Q1116.22,69.951,1120.52,74.405Zm50.05-28.478V154.233h33.73V77.759q4.815-7.808,14.72-7.808,8.7,0,12.01,3.854t3.3,12.062v68.367h33.84V84.465q-0.3-20.319-8.66-30.43t-25.28-10.11q-19.71,0-30.93,14.714l-1.1-12.712h-31.63Zm183.38,108.306h38.64l-40.44-63.762,37.93-44.543h-40.43l-25.43,31.631-3.4,4.5V0.383h-33.74v153.85h33.74V123.4l9.51-9.509Zm40.84-49.448q1.1,23.722,15.11,37.587t37.14,13.863q24.03,0,38.09-14.864t14.06-40.19v-1.2q0-25.924-14.01-40.99-14.025-15.064-38.34-15.065-15.915,0-27.73,6.807A45.09,45.09,0,0,0,1401,70.2q-6.315,12.664-6.31,28.878Zm33.73-9.71q1.41-25.124,18.32-25.124,18.615,0,18.62,29.128v3.4q-0.4,27.727-18.42,27.727-9.21,0-13.91-7.007t-4.71-22.022Z"/>
</svg>
