<svg xmlns="http://www.w3.org/2000/svg" class="logo-svg" viewBox="1008.9 343.9 90.932 48.349">
	<path d="M58.58,41.617v6.427h-.951v-8.8l5.964,6.732V39.544h.95v8.8Zm-24.8,0v6.427h-.95v-8.8l5.963,6.732V39.544h.95v8.8ZM7.739,39.544H8.763l2.634,6.39,2.634-6.39h1.024l-3.658,8.8Zm75.488,7.414a4.52,4.52,0,0,1,0-6.3,4.355,4.355,0,0,1,3.146-1.268,4.307,4.307,0,0,1,3.135,1.268,4.49,4.49,0,0,1,0,6.3,4.3,4.3,0,0,1-3.135,1.256A4.344,4.344,0,0,1,83.227,46.958Zm.646-5.683a3.736,3.736,0,0,0,0,5.061,3.385,3.385,0,0,0,2.5,1,3.336,3.336,0,0,0,2.488-1,3.734,3.734,0,0,0,0-5.061,3.346,3.346,0,0,0-2.488-1.013A3.4,3.4,0,0,0,83.873,41.276Zm-7.816,6.768-3.842-4.122v4.122h-.95v-8.5h.95v3.927l3.757-3.927h1.2L73.2,43.654l4.085,4.39Zm-29.6,0v-8.5h4.8v.877H47.409v2.7h3.623v.877H47.409v3.172h3.939v.877Zm-20.7,0-.914-2.1H21.02l-.914,2.1h-1l3.841-8.8,3.854,8.8ZM21.4,45.068h3.073l-1.537-3.61ZM.806,48.044H.8v-8.5h.951v8.5ZM36.2,20.9h3.09l3.655,7.706L46.617,20.9h3.091L42.944,34.673Zm45.915,5.69v7.443H79.25V20.391l8.817,7.969V20.9h2.864V34.541Zm-29.26,5.728A6.361,6.361,0,0,1,50.8,27.475a6.364,6.364,0,0,1,2.054-4.842,7,7,0,0,1,5.011-1.94A7.231,7.231,0,0,1,61.86,21.8v2.845a6.216,6.216,0,0,0-3.994-1.319,4.061,4.061,0,0,0-2.957,1.187A3.944,3.944,0,0,0,53.7,27.475a4,4,0,0,0,1.187,2.958,4.454,4.454,0,0,0,5.84.151V28.814H57.281V26.251h6.161v5.313a6.953,6.953,0,0,1-5.577,2.676A7.062,7.062,0,0,1,52.854,32.317Zm13.923,1.715V20.9h8.969v2.638H69.679v2.468H75.35v2.581H69.679v2.808h6.2v2.638Zm-41.845,0V20.9H33.9v2.638H27.833v2.468H33.5v2.581H27.833v2.808h6.2v2.638ZM0,34V0H34V16H31V3H3V31H20v3Z" transform="translate(1008.9 343.9)"/>
</svg>
