<svg xmlns="http://www.w3.org/2000/svg" viewBox="-944.6 1571.4 92.049 50.015">
  <defs>
    <style>
      .cls-1, .cls-2 {
        fill: #fff;
      }

      .cls-1 {
        stroke: rgba(0,0,0,0);
      }
    </style>
  </defs>
  <g id="logo" transform="translate(-1967 1170)">
    <path id="logo_2" data-name="logo 2" class="cls-1" d="M1973.764-1130.6h1.27l2.705,6.1,2.722-6.1h1.254l-3.975,8.89Zm39.834,7.422a4.309,4.309,0,0,1-1.155-3.15v-.082a4.4,4.4,0,0,1,1.171-3.185,3.979,3.979,0,0,1,2.985-1.22,3.51,3.51,0,0,1,2.755,1.187,4.171,4.171,0,0,1,1.073,2.92c0,.182,0,.363-.017.528h-6.746a2.87,2.87,0,0,0,2.985,3.035,3.849,3.849,0,0,0,3.051-1.187v1.385a4.839,4.839,0,0,1-3.051.94A4.137,4.137,0,0,1,2013.6-1123.177Zm1.04-5.789a2.441,2.441,0,0,0-.891,1.715h5.377a2.281,2.281,0,0,0-.742-1.7,2.49,2.49,0,0,0-1.782-.725A2.87,2.87,0,0,0,2014.637-1128.966Zm35.5,5.674a4.242,4.242,0,0,1-1.286-3.151,4.2,4.2,0,0,1,1.286-3.134,4.306,4.306,0,0,1,3.134-1.271,4.308,4.308,0,0,1,3.135,1.271,4.2,4.2,0,0,1,1.286,3.134,4.242,4.242,0,0,1-1.286,3.151,4.293,4.293,0,0,1-3.135,1.254A4.291,4.291,0,0,1,2050.133-1123.293Zm.842-5.476a3.141,3.141,0,0,0-.907,2.325,3.21,3.21,0,0,0,.907,2.343,3.106,3.106,0,0,0,2.292.923,3.106,3.106,0,0,0,2.293-.923,3.211,3.211,0,0,0,.907-2.343,3.142,3.142,0,0,0-.907-2.325,3.059,3.059,0,0,0-2.293-.941A3.058,3.058,0,0,0,2050.974-1128.768Zm-63.686,5.476a4.388,4.388,0,0,1-1.219-3.151,4.347,4.347,0,0,1,1.219-3.134,4,4,0,0,1,2.986-1.271,3.2,3.2,0,0,1,2.953,1.485v-1.237h1.22v8.313h-1.22v-1.238a3.2,3.2,0,0,1-2.953,1.485A3.989,3.989,0,0,1,1987.288-1123.293Zm.842-5.476a3.3,3.3,0,0,0-.842,2.325,3.376,3.376,0,0,0,.842,2.343,2.831,2.831,0,0,0,2.145.923,2.921,2.921,0,0,0,2.21-.923,3.269,3.269,0,0,0,.891-2.343,3.2,3.2,0,0,0-.891-2.325,2.878,2.878,0,0,0-2.21-.941A2.79,2.79,0,0,0,1988.13-1128.768Zm55.125,6.482-3.6-4.041v4.041h-1.219v-11.5h1.219v6.828l3.317-3.645h1.435l-3.547,3.91,3.926,4.4Zm-11.695,0v-5.047a2.068,2.068,0,0,0-2.178-2.261,2.248,2.248,0,0,0-2.358,2.344v4.964H2025.8v-8.313h1.221v1.4a2.847,2.847,0,0,1,2.672-1.535,2.906,2.906,0,0,1,3.084,3.134v5.312Zm-25.632,0v-5.047a2.067,2.067,0,0,0-2.177-2.261,2.248,2.248,0,0,0-2.359,2.344v4.964h-1.221v-8.313h1.221v1.4a2.848,2.848,0,0,1,2.672-1.535,2.905,2.905,0,0,1,3.083,3.134v5.312Zm-38.449,0v-8.313h1.22v8.313Zm50.534-11.514v-2.993a6.758,6.758,0,0,0,4.465,1.384,5.059,5.059,0,0,0,2.569-.535,2.734,2.734,0,0,0,.983-2.412v-.469c-.469.8-1.809,1.363-3.439,1.363a5.377,5.377,0,0,1-4-1.63,5.671,5.671,0,0,1-1.585-4.065,5.829,5.829,0,0,1,1.585-4.131,5.27,5.27,0,0,1,4-1.7c1.7,0,3.014.692,3.349,1.675v-1.474h3.327v9.379a12.73,12.73,0,0,1-.358,3.439,3.857,3.857,0,0,1-1.606,2.166,7,7,0,0,1-4.176,1.182A9.9,9.9,0,0,1,2018.013-1133.8Zm3.148-11.345a2.646,2.646,0,0,0-.826,1.987,2.594,2.594,0,0,0,.826,1.966,2.816,2.816,0,0,0,2.032.8,2.88,2.88,0,0,0,2.075-.8,2.557,2.557,0,0,0,.871-1.966,2.606,2.606,0,0,0-.871-1.987,2.808,2.808,0,0,0-2.075-.825A2.746,2.746,0,0,0,2021.161-1145.145ZM1967-1136v-34h34v16h-3v-13h-28v28h17v3Zm35.941-12.784h3.482l2.993,5.673,2.993-5.673h3.461l-6.454,11.924Zm31.127,9.959a5.6,5.6,0,0,1-1.676-4.243v-.112a5.6,5.6,0,0,1,1.676-4.243,5.933,5.933,0,0,1,4.287-1.631,5.468,5.468,0,0,1,4.109,1.652,5.614,5.614,0,0,1,1.585,4.043,8.571,8.571,0,0,1-.066,1.094h-8.262c.066,1.34,1.205,2.189,2.969,2.189a6.806,6.806,0,0,0,4-1.094v2.9a7.554,7.554,0,0,1-4.175,1.027A6.29,6.29,0,0,1,2034.068-1138.825Zm2.478-6.922a1.673,1.673,0,0,0-.8,1.317h4.957a2.142,2.142,0,0,0-2.345-1.853A3.086,3.086,0,0,0,2036.546-1145.747Zm-44.77,6.922a5.6,5.6,0,0,1-1.676-4.243v-.112a5.6,5.6,0,0,1,1.676-4.243,5.934,5.934,0,0,1,4.287-1.631,5.466,5.466,0,0,1,4.108,1.652,5.611,5.611,0,0,1,1.586,4.043,8.391,8.391,0,0,1-.067,1.094h-8.262c.067,1.34,1.205,2.189,2.969,2.189a6.807,6.807,0,0,0,4-1.094v2.9a7.556,7.556,0,0,1-4.176,1.027A6.288,6.288,0,0,1,1991.776-1138.825Zm2.478-6.922a1.671,1.671,0,0,0-.8,1.317h4.956a2.141,2.141,0,0,0-2.344-1.853A3.085,3.085,0,0,0,1994.254-1145.747Zm60.468,8.217v-6.431a1.909,1.909,0,0,0-2.054-2.121,2.14,2.14,0,0,0-2.211,2.233v6.319h-3.326v-11.255h3.326v1.408a3.534,3.534,0,0,1,3.282-1.652c2.747,0,4.31,1.741,4.31,4.667v6.833Z" transform="translate(-944.1 1571.9)"/>
    <path id="logo_1" data-name="logo 1" class="cls-2" d="M58.58,41.617v6.427h-.951v-8.8l5.964,6.732V39.544h.95v8.8Zm-24.8,0v6.427h-.95v-8.8l5.963,6.732V39.544h.95v8.8ZM7.739,39.544H8.763l2.634,6.39,2.634-6.39h1.024l-3.658,8.8Zm75.488,7.414a4.52,4.52,0,0,1,0-6.3,4.355,4.355,0,0,1,3.146-1.268,4.307,4.307,0,0,1,3.135,1.268,4.49,4.49,0,0,1,0,6.3,4.3,4.3,0,0,1-3.135,1.256A4.344,4.344,0,0,1,83.227,46.958Zm.646-5.683a3.736,3.736,0,0,0,0,5.061,3.385,3.385,0,0,0,2.5,1,3.336,3.336,0,0,0,2.488-1,3.734,3.734,0,0,0,0-5.061,3.346,3.346,0,0,0-2.488-1.013A3.4,3.4,0,0,0,83.873,41.276Zm-7.816,6.768-3.842-4.122v4.122h-.95v-8.5h.95v3.927l3.757-3.927h1.2L73.2,43.654l4.085,4.39Zm-29.6,0v-8.5h4.8v.877H47.409v2.7h3.623v.877H47.409v3.172h3.939v.877Zm-20.7,0-.914-2.1H21.02l-.914,2.1h-1l3.841-8.8,3.854,8.8ZM21.4,45.068h3.073l-1.537-3.61ZM.806,48.044H.8v-8.5h.951v8.5ZM36.2,20.9h3.09l3.655,7.706L46.617,20.9h3.091L42.944,34.673Zm45.915,5.69v7.443H79.25V20.391l8.817,7.969V20.9h2.864V34.541Zm-29.26,5.728A6.361,6.361,0,0,1,50.8,27.475a6.364,6.364,0,0,1,2.054-4.842,7,7,0,0,1,5.011-1.94A7.231,7.231,0,0,1,61.86,21.8v2.845a6.216,6.216,0,0,0-3.994-1.319,4.061,4.061,0,0,0-2.957,1.187A3.944,3.944,0,0,0,53.7,27.475a4,4,0,0,0,1.187,2.958,4.454,4.454,0,0,0,5.84.151V28.814H57.281V26.251h6.161v5.313a6.953,6.953,0,0,1-5.577,2.676A7.062,7.062,0,0,1,52.854,32.317Zm13.923,1.715V20.9h8.969v2.638H69.679v2.468H75.35v2.581H69.679v2.808h6.2v2.638Zm-41.845,0V20.9H33.9v2.638H27.833v2.468H33.5v2.581H27.833v2.808h6.2v2.638ZM0,34V0H34V16H31V3H3V31H20v3Z" transform="translate(1022.9 401.9)"/>
  </g>
</svg>
