<svg id="squares" xmlns="http://www.w3.org/2000/svg" viewBox="-33.6 724.9 2054.6 355.1">
  <defs><style>.cls-1 {fill: #fff;}</style>
  </defs>
  <path id="Path_6" data-name="Path 6" class="cls-1" d="M269.4-.3H677.6L598.2,144H-9Z" transform="translate(108 936)"/>
  <path id="Path_7" data-name="Path 7" class="cls-1" d="M382.1-.4-31.4-.3,87.6,144H700Z" transform="translate(1227.4 936)"/>
  <path id="Path_8" data-name="Path 8" class="cls-1" d="M2.3,0H227.7L201.3,48l-290.4-.1Z" transform="translate(632 801)"/>
  <path id="Path_20" data-name="Path 20" class="cls-1" d="M75.7,0h185L203.4,30H-21.5Z" transform="translate(431 771)"/>
  <path id="Path_25" data-name="Path 25" class="cls-1" d="M95.7-.1,232.3,0,203.7,15l-158.5.5Z" transform="translate(528 735)"/>
  <path id="Path_26" data-name="Path 26" class="cls-1" d="M323.2,0H612.3L446.9,86.7H35.8Z" transform="translate(-69.4 849)"/>
  <path id="Path_27" data-name="Path 27" class="cls-1" d="M395.5,0H612.9L457.2,48H177.4Z" transform="translate(-203.4 801)"/>
  <path id="Path_31" data-name="Path 31" class="cls-1" d="M412.6,32.8h114L456.9,48.2H337.6Z" transform="translate(-34.4 702)"/>
  <path id="Path_30" data-name="Path 30" class="cls-1" d="M477.5.1H597.1L461.7,30H326.6Z" transform="translate(-269.4 771)"/>
  <path id="Path_28" data-name="Path 28" class="cls-1" d="M373.8-.3,524.6,0,458.1,20.5l-178.5-.1Z" transform="translate(48.6 750.5)"/>
  <path id="Path_29" data-name="Path 29" class="cls-1" d="M372-.2H491.3L459.1,9.7,327.5,9.6Z" transform="translate(164.6 725.2)"/>
  <path id="Path_21" data-name="Path 21" class="cls-1" d="M58.6,9H214.8L203.2,30H18.7Z" transform="translate(673 741)"/>
  <path id="Path_22" data-name="Path 22" class="cls-1" d="M86.3,9.1,208.6,9,203,19.1H67.3Z" transform="translate(693 715.9)"/>
  <path id="Path_1" data-name="Path 1" class="cls-1" d="M1.3,0H292.5L364,86.7H-46.4Z" transform="translate(832 849)"/>
  <path id="Path_14" data-name="Path 14" class="cls-1" d="M-238.7-.2H52.4L364,87H-46.8Z" transform="translate(1657 849)"/>
  <path id="Path_15" data-name="Path 15" class="cls-1" d="M-113,57H71.7L179.3,87h-226Z" transform="translate(1360 714)"/>
  <path id="Path_17" data-name="Path 17" class="cls-1" d="M-214,39H-18.4L222.3,87l-265.6-.2Z" transform="translate(1753 762)"/>
  <path id="Path_18" data-name="Path 18" class="cls-1" d="M-81.9,77H18.3L65.1,87H-46.1Z" transform="translate(1349 648)"/>
  <path id="Path_19" data-name="Path 19" class="cls-1" d="M-123.4,77.4H7.4l103.8,21H-48.3Z" transform="translate(1480 672.6)"/>
  <path id="Path_16" data-name="Path 16" class="cls-1" d="M-79.9,72H54.9l53.9,15H-46.7Z" transform="translate(1248 663)"/>
  <path id="Path_2" data-name="Path 2" class="cls-1" d="M44.2-.2h184l24.7,30H27.7Z" transform="translate(832 771.2)"/>
  <path id="Path_12" data-name="Path 12" class="cls-1" d="M9.8,0H168.1l46.1,21H27.2Z" transform="translate(1033 750)"/>
  <path id="Path_13" data-name="Path 13" class="cls-1" d="M18.1.1,141.9.2l22.2,10H26.4Z" transform="translate(1004 724.8)"/>
  <path id="Path_3" data-name="Path 3" class="cls-1" d="M64,0H198.4l12.4,15H55.7Z" transform="translate(832 735)"/>
  <path id="Path_9" data-name="Path 9" class="cls-1" d="M125,0H-103.5l39.7,48H230.7Z" transform="translate(1188.3 801)"/>
</svg>
